<svg width="35" height="36" viewBox="0 0 35 36" fill="none" xmlns="http://www.w3.org/2000/svg">
<path d="M4.86218 0H29.6421C32.3278 0 34.5043 2.21086 34.5043 4.93368V30.0912C34.5043 32.8168 32.3278 35.0248 29.6421 35.0248H4.86218C2.17654 35.0248 0 32.8168 0 30.0912V4.93368C0 2.21086 2.17654 0 4.86218 0Z" fill="#1E3E2B"/>
<path d="M28.7783 28.1947H20.4211L20.3181 28.0317L19.8576 27.3167L17.458 23.5499L16.6515 22.2829L15.2929 23.63L15.23 23.6929V28.1976H8.18555V6.8269H15.1728L15.2328 6.92415V12.4556C15.2328 12.5385 15.2328 12.6272 15.2328 12.7187C15.2328 12.8245 15.2328 12.9275 15.2128 13.0305C15.1928 13.1334 15.1928 13.225 15.1814 13.3165C15.1699 13.408 15.147 13.5367 15.127 13.6454C15.0898 13.837 15.0412 14.0286 14.9812 14.2174C14.9526 14.3204 14.9211 14.4233 14.8839 14.5234C14.8496 14.6178 14.8153 14.7094 14.7781 14.8037C14.4377 15.6274 13.9201 16.3625 13.268 16.9603C13.205 17.0146 13.1507 17.0689 13.0906 17.1147L12.9104 17.2634C12.8418 17.3206 12.7703 17.3721 12.6959 17.4207C12.6387 17.4636 12.5844 17.498 12.5272 17.5351C12.2669 17.7096 11.9923 17.8612 11.7035 17.987L12.8447 19.786L14.2032 18.4361L15.2357 17.4093L19.3199 13.3565L19.8576 12.8045L19.9549 12.7073H28.3779L22.5804 18.4647L28.3807 27.5741L28.7783 28.1947Z" fill="#D0EA51"/>
</svg>
