<svg width="19" height="15" viewBox="0 0 19 15" fill="none" xmlns="http://www.w3.org/2000/svg">
<path d="M4.78673 0.955886C4.71259 0.880244 4.62428 0.819952 4.52683 0.778454C4.42939 0.736956 4.32472 0.715066 4.21881 0.714035C4.1129 0.713004 4.00783 0.732851 3.90959 0.772444C3.81136 0.812036 3.72189 0.870598 3.64629 0.944782C2.79119 1.79492 2.11288 2.80596 1.65051 3.91958C1.18814 5.0332 0.950852 6.22735 0.952338 7.43315C0.950952 8.6852 1.20691 9.92418 1.70434 11.0732C2.20176 12.2222 2.93004 13.2567 3.84395 14.1125C3.99777 14.2547 4.20095 14.3313 4.41036 14.3262C4.61977 14.321 4.81891 14.2344 4.96551 14.0847C5.31641 13.7338 5.2731 13.1753 4.93553 12.8521C4.20207 12.1532 3.61841 11.3123 3.22001 10.3808C2.82161 9.44918 2.6168 8.44633 2.61801 7.43315C2.61801 5.38325 3.44086 3.52436 4.77562 2.17183C5.09765 1.84425 5.13097 1.30013 4.78673 0.955886ZM6.74223 2.91361C6.59598 2.76313 6.39605 2.67676 6.18623 2.67343C5.97642 2.6701 5.77384 2.75008 5.62289 2.89584C5.02208 3.48877 4.54519 4.19527 4.21996 4.97422C3.89473 5.75317 3.72766 6.58903 3.72847 7.43315C3.72716 8.32568 3.91364 9.2085 4.2758 10.0242C4.63795 10.84 5.16767 11.5704 5.83055 12.1681C5.98296 12.3028 6.18133 12.3736 6.38456 12.366C6.58778 12.3583 6.78027 12.2728 6.92212 12.127C7.28635 11.7628 7.21861 11.1898 6.87659 10.8678C6.40777 10.4271 6.03432 9.89489 5.77934 9.30413C5.52436 8.71337 5.39326 8.07659 5.39414 7.43315C5.39414 6.15613 5.90162 4.99682 6.72668 4.14621C7.04427 3.81974 7.09646 3.26673 6.74223 2.91361ZM12.9297 2.91361C13.0759 2.76313 13.2758 2.67676 13.4857 2.67343C13.6955 2.6701 13.898 2.75008 14.049 2.89584C14.6498 3.48877 15.1267 4.19527 15.4519 4.97422C15.7772 5.75317 15.9442 6.58903 15.9434 7.43315C15.9447 8.32568 15.7582 9.2085 15.3961 10.0242C15.0339 10.84 14.5042 11.5704 13.8413 12.1681C13.6889 12.3028 13.4906 12.3736 13.2873 12.366C13.0841 12.3583 12.8916 12.2728 12.7498 12.127C12.3855 11.7628 12.4533 11.1898 12.7953 10.8678C13.2641 10.4271 13.6376 9.89489 13.8926 9.30413C14.1475 8.71337 14.2786 8.07659 14.2777 7.43315C14.2777 6.15613 13.7703 4.99682 12.9452 4.14621C12.6276 3.81974 12.5754 3.26673 12.9297 2.91361ZM14.8852 0.956997C14.9593 0.881355 15.0476 0.821063 15.1451 0.779565C15.2425 0.738067 15.3472 0.716177 15.4531 0.715146C15.559 0.714114 15.6641 0.733962 15.7623 0.773554C15.8605 0.813147 15.95 0.871708 16.0256 0.945892C16.8806 1.7959 17.5588 2.80676 18.0212 3.92018C18.4835 5.0336 18.7209 6.22754 18.7196 7.43315C18.7209 8.6852 18.465 9.92418 17.9676 11.0732C17.4701 12.2222 16.7419 13.2567 15.8279 14.1125C15.6741 14.2547 15.4709 14.3313 15.2615 14.3262C15.0521 14.321 14.853 14.2344 14.7064 14.0847C14.3555 13.7338 14.3988 13.1753 14.7375 12.8521C15.4707 12.1531 16.0542 11.3122 16.4524 10.3806C16.8506 9.44906 17.0552 8.44625 17.0539 7.43315C17.0539 5.38325 16.231 3.52436 14.8963 2.17183C14.5742 1.84425 14.5409 1.30013 14.8852 0.955886V0.956997ZM9.83595 5.76747C9.39418 5.76747 8.97051 5.94296 8.65813 6.25534C8.34576 6.56771 8.17027 6.99138 8.17027 7.43315C8.17027 7.87491 8.34576 8.29858 8.65813 8.61096C8.97051 8.92333 9.39418 9.09882 9.83595 9.09882C10.2777 9.09882 10.7014 8.92333 11.0138 8.61096C11.3261 8.29858 11.5016 7.87491 11.5016 7.43315C11.5016 6.99138 11.3261 6.56771 11.0138 6.25534C10.7014 5.94296 10.2777 5.76747 9.83595 5.76747Z" fill="#D0EA51"/>
</svg>
