<svg width="19" height="19" viewBox="0 0 19 19" fill="none" xmlns="http://www.w3.org/2000/svg">
<path d="M9.1642 6.44282C7.48101 6.44282 6.1074 7.81645 6.1074 9.49968C6.1074 11.1829 7.48101 12.5565 9.1642 12.5565C10.8474 12.5565 12.221 11.1829 12.221 9.49968C12.221 7.81645 10.8474 6.44282 9.1642 6.44282ZM18.3323 9.49968C18.3323 8.23382 18.3438 6.97943 18.2727 5.71587C18.2016 4.24821 17.8668 2.94566 16.7936 1.87244C15.7181 0.796919 14.4179 0.464403 12.9502 0.393314C11.6844 0.322224 10.43 0.33369 9.1665 0.33369C7.90066 0.33369 6.6463 0.322224 5.38276 0.393314C3.91513 0.464403 2.61261 0.799213 1.5394 1.87244C0.463903 2.94796 0.131393 4.24821 0.0603046 5.71587C-0.0107838 6.98172 0.000682091 8.23611 0.000682091 9.49968C0.000682091 10.7632 -0.0107838 12.0199 0.0603046 13.2835C0.131393 14.7511 0.466196 16.0537 1.5394 17.1269C2.6149 18.2024 3.91513 18.5349 5.38276 18.606C6.64859 18.6771 7.90296 18.6657 9.1665 18.6657C10.4323 18.6657 11.6867 18.6771 12.9502 18.606C14.4179 18.5349 15.7204 18.2001 16.7936 17.1269C17.8691 16.0514 18.2016 14.7511 18.2727 13.2835C18.3461 12.0199 18.3323 10.7655 18.3323 9.49968V9.49968ZM9.1642 14.2031C6.56145 14.2031 4.4609 12.1025 4.4609 9.49968C4.4609 6.89687 6.56145 4.79629 9.1642 4.79629C11.767 4.79629 13.8675 6.89687 13.8675 9.49968C13.8675 12.1025 11.767 14.2031 9.1642 14.2031ZM14.0601 5.70211C13.4524 5.70211 12.9617 5.21136 12.9617 4.60366C12.9617 3.99596 13.4524 3.50521 14.0601 3.50521C14.6678 3.50521 15.1586 3.99596 15.1586 4.60366C15.1587 4.74796 15.1305 4.89088 15.0753 5.02423C15.0202 5.15758 14.9393 5.27875 14.8372 5.38078C14.7352 5.48282 14.614 5.56373 14.4807 5.61886C14.3473 5.674 14.2044 5.70229 14.0601 5.70211V5.70211Z" fill="#D0EA51"/>
</svg>
