<svg width="19" height="19" viewBox="0 0 19 19" fill="none" xmlns="http://www.w3.org/2000/svg">
<path d="M17.1248 0.333008H1.5415C0.777615 0.333008 0.166504 0.946676 0.166504 1.63705V17.3623C0.166504 18.0527 0.777615 18.6663 1.5415 18.6663H17.1248C17.8887 18.6663 18.4998 18.0527 18.4998 17.3623V1.63705C18.4998 0.946676 17.8887 0.333008 17.1248 0.333008ZM5.59012 15.9815H2.9165V7.23677H5.59012V15.9815ZM4.2915 6.00944C3.45123 6.00944 2.68734 5.31906 2.68734 4.39856C2.68734 3.47806 3.37484 2.78768 4.2915 2.78768C5.13178 2.78768 5.89567 3.47806 5.89567 4.39856C5.89567 5.31906 5.13178 6.00944 4.2915 6.00944ZM15.8262 15.9048H13.1526V11.6092C13.1526 10.6119 13.1526 9.2312 11.7012 9.2312C10.2498 9.2312 10.0971 10.3818 10.0971 11.4557V15.8281H7.42345V7.23677H9.94428V8.3874H10.0207C10.4026 7.69703 11.3193 6.92994 12.6179 6.92994C15.3679 6.92994 15.9026 8.77094 15.9026 11.1489V15.9048H15.8262Z" fill="#D0EA51"/>
</svg>
