<svg width="149" height="37" viewBox="0 0 149 37" fill="none" xmlns="http://www.w3.org/2000/svg">
<g clip-path="url(#clip0_714_493)">
<path d="M4.86218 0.986328H29.6421C32.3278 0.986328 34.5043 3.19719 34.5043 5.92001V31.0775C34.5043 33.8032 32.3278 36.0112 29.6421 36.0112H4.86218C2.17654 36.0112 0 33.8032 0 31.0775V5.92001C0 3.19719 2.17654 0.986328 4.86218 0.986328Z" fill="#1E3E2B"/>
<path d="M28.7784 29.1813H20.4212L20.3182 29.0183L19.8577 28.3033L17.4581 24.5365L16.6515 23.2695L15.293 24.6166L15.2301 24.6795V29.1842H8.18564V7.81348H15.1729L15.2329 7.91072V13.4422C15.2329 13.5251 15.2329 13.6138 15.2329 13.7053C15.2329 13.8111 15.2329 13.9141 15.2129 14.017C15.1929 14.12 15.1929 14.2115 15.1815 14.3031C15.17 14.3946 15.1471 14.5233 15.1271 14.632C15.0899 14.8236 15.0413 15.0152 14.9812 15.204C14.9526 15.3069 14.9212 15.4099 14.884 15.51C14.8497 15.6044 14.8154 15.6959 14.7782 15.7903C14.4378 16.614 13.9201 17.3491 13.268 17.9468C13.2051 18.0012 13.1508 18.0555 13.0907 18.1013L12.9105 18.25C12.8419 18.3072 12.7704 18.3587 12.696 18.4073C12.6388 18.4502 12.5845 18.4845 12.5273 18.5217C12.267 18.6962 11.9924 18.8478 11.7036 18.9736L12.8447 20.7726L14.2033 19.4226L15.2358 18.3959L19.32 14.3431L19.8577 13.7911L19.955 13.6939H28.378L22.5805 19.4512L28.3808 28.5607L28.7784 29.1813Z" fill="#D0EA51"/>
<path d="M146.763 20.2262V24.7395C146.766 25.2171 147.127 25.6004 147.567 25.5975H149V30.0678H143.909C142.339 30.0678 141.069 28.695 141.069 26.9989V20.2262H138.829V15.7559H141.069V9.65527H146.749V12.0292C146.749 13.4306 145.871 14.6519 144.615 15.0008L145.067 15.7559H148.991V20.2262H146.763Z" fill="#1E3E2B"/>
<path d="M89.504 14.8638C89.6041 15.473 89.8701 16.0365 90.2705 16.4826C90.4164 16.6457 90.5794 16.7915 90.7539 16.9145L90.3277 17.3578L90.2648 17.4236V17.272C90.0188 16.9374 89.75 16.6257 89.4554 16.3396C87.419 14.3547 84.516 13.7827 81.9619 14.8667C81.2412 15.1699 80.5748 15.5989 79.9827 16.1366C76.9167 18.9023 76.5048 23.8303 79.0646 27.1423C79.8397 28.1462 80.835 28.9212 81.9591 29.4017C84.5188 30.4972 87.4333 29.928 89.4725 27.9288C89.7643 27.6456 90.0331 27.3367 90.2762 27.005L90.6652 27.4197C90.5251 27.5284 90.3935 27.6485 90.2762 27.7829C89.8758 28.2262 89.6098 28.7897 89.5126 29.4017H95.2242V14.8638H89.504ZM90.5308 22.3115C90.5308 22.3716 90.5308 22.4288 90.5308 22.4889L90.5165 22.649C90.5165 22.6576 90.5165 22.6662 90.5165 22.6719C90.5165 22.712 90.5165 22.752 90.4993 22.792C90.4993 22.8149 90.4993 22.8378 90.4993 22.8635C90.4993 22.9093 90.4822 22.9522 90.4736 22.9951C90.465 23.038 90.4736 23.0094 90.4736 23.018C90.4621 23.0723 90.4507 23.1238 90.4364 23.1753C90.3592 23.5071 90.2419 23.8245 90.0903 24.122C90.0674 24.1706 90.0417 24.2192 90.0131 24.265C89.9874 24.3136 89.9588 24.3622 89.9273 24.408C89.9016 24.4566 89.873 24.5024 89.8415 24.5453C89.8129 24.591 89.7814 24.6368 89.7471 24.6826C89.6871 24.7741 89.6184 24.8628 89.5469 24.9457C89.4783 25.0258 89.4096 25.1059 89.3324 25.1802C88.8548 25.6636 88.2713 26.0039 87.6364 26.1727C87.5677 26.1898 87.4962 26.2099 87.4219 26.2213L87.336 26.2356H87.3075C87.2588 26.247 87.2102 26.2528 87.1587 26.2585C87.1101 26.2671 87.0586 26.2728 87.0071 26.2728C86.9614 26.2756 86.9156 26.2756 86.8727 26.2728H86.4466C86.3264 26.2642 86.2092 26.2528 86.089 26.2299C86.0233 26.2213 85.9603 26.2099 85.8974 26.1927L85.743 26.1555C84.9736 25.9496 84.2815 25.492 83.7609 24.8456C83.6808 24.7484 83.6065 24.6482 83.5378 24.5453C82.6169 23.1381 82.594 21.2647 83.4778 19.8318C83.5693 19.686 83.6694 19.543 83.7781 19.4114C84.2958 18.7622 84.9908 18.3045 85.7601 18.1015L85.9146 18.0614C85.9775 18.0471 86.0404 18.0357 86.1062 18.0242C86.2235 18.0071 86.3493 17.9928 86.4637 17.9842H86.7068C86.8012 17.9842 86.8956 17.9842 86.9871 17.9985L87.1702 18.0157L87.3132 18.0385C87.3504 18.0414 87.3847 18.05 87.419 18.0586C87.4905 18.07 87.5591 18.0872 87.6306 18.1072H87.665C88.0883 18.2187 88.4858 18.4132 88.8462 18.6792C88.932 18.7393 89.0121 18.8051 89.0893 18.8766C89.3267 19.0796 89.5412 19.3113 89.7271 19.5687L89.8186 19.7031C89.8815 19.7918 89.9359 19.8862 89.9874 19.9834C90.0703 20.1264 90.1418 20.2751 90.2019 20.4325C90.2476 20.5354 90.2848 20.6412 90.3191 20.7499C90.3392 20.8043 90.3563 20.8586 90.3706 20.913C90.3849 20.9673 90.3992 21.0216 90.4107 21.0788C90.4221 21.136 90.4335 21.1732 90.4421 21.219C90.4536 21.2676 90.465 21.3191 90.4707 21.3706C90.4707 21.4049 90.4707 21.4421 90.4879 21.4793L90.5022 21.5879C90.5022 21.6423 90.5022 21.6966 90.5193 21.7538C90.5365 21.811 90.5193 21.8739 90.5193 21.9311C90.5193 21.9884 90.5193 22.0513 90.5193 22.1085C90.5193 22.1657 90.5336 22.2543 90.5308 22.3115Z" fill="#1E3E2B"/>
<path d="M67.5728 30.0507H59.207L59.1041 29.8763L58.6464 29.1126L56.2468 25.097L55.4288 23.7671L54.0674 25.2029L54.0045 25.2715V30.0708H46.9601V7.29004H53.9559L54.0159 7.393V13.2963C54.0159 13.3849 54.0159 13.4736 54.0159 13.5594C54.0159 13.6709 54.0159 13.7825 53.993 13.8912C53.9702 13.9998 53.973 14.0971 53.9616 14.1972C53.9501 14.2973 53.9301 14.4289 53.9072 14.5461C53.8701 14.752 53.8214 14.9551 53.7642 15.1553C53.7356 15.264 53.7042 15.3756 53.6641 15.4814C53.6241 15.5872 53.5955 15.6816 53.5583 15.7788C53.2151 16.6569 52.6946 17.4405 52.0367 18.0755C51.9795 18.1327 51.9195 18.187 51.8594 18.2414L51.6792 18.3987C51.6077 18.4587 51.5391 18.5131 51.4647 18.5674L51.296 18.6904C51.0357 18.8792 50.7583 19.0393 50.4723 19.1738L51.6192 21.09L52.9777 19.6485L54.0131 18.5531L58.1059 14.2287L58.6464 13.6538L58.7465 13.5479H67.1838L61.3664 19.6829L67.1838 29.3901L67.5728 30.0507Z" fill="#1E3E2B"/>
<path d="M136.415 13.4336H130.735V30.0651H136.415V13.4336Z" fill="#1E3E2B"/>
<path d="M75.2005 7.43848H69.5204V30.0819H75.2005V7.43848Z" fill="#1E3E2B"/>
<path d="M111.638 19.3798V18.3101C111.638 17.8353 111.564 17.3662 111.418 16.9201C111.121 16.002 110.537 15.2269 109.768 14.7207L109.716 14.6835L109.473 14.549L109.433 14.5262C109.37 14.489 109.305 14.4547 109.239 14.4203C109.044 14.3174 108.847 14.2201 108.644 14.1286C108.509 14.0685 108.372 14.0113 108.238 13.957C108.103 13.9027 107.963 13.8483 107.823 13.8026L107.58 13.7225L107.337 13.6453C107.26 13.6224 107.179 13.6023 107.094 13.5823C107.008 13.5623 106.911 13.5337 106.813 13.5108L106.553 13.4565C105.935 13.3335 105.306 13.2734 104.677 13.2734H104.414C104.325 13.2734 104.236 13.2734 104.148 13.2734L103.899 13.2935C103.796 13.2935 103.69 13.3106 103.59 13.3249C103.49 13.3392 103.416 13.3421 103.327 13.3564H103.261C103.13 13.3764 103.001 13.3964 102.875 13.4193C102.852 13.4193 102.832 13.425 102.809 13.4336L102.6 13.4765L102.512 13.4937C102.363 13.528 102.217 13.5652 102.074 13.6023L101.88 13.6596C101.668 13.7196 101.462 13.794 101.256 13.8683L100.867 14.0228L100.487 14.1944L100.392 14.2402L100.244 14.3088L100.192 14.3374L100.146 14.3631L100.021 14.4375L99.9834 14.4604L99.869 14.5347L99.7861 14.5919C99.706 14.6491 99.6259 14.7092 99.543 14.7721L99.4457 14.8551C99.3828 14.9123 99.3199 14.9723 99.2627 15.0324C99.2055 15.0925 99.1826 15.1125 99.1426 15.1554C99.1025 15.1983 99.0539 15.2555 99.0138 15.307C98.9738 15.3585 98.9309 15.4071 98.8937 15.4586L98.8737 15.4843V15.4986C98.8594 15.5158 98.8451 15.5329 98.8337 15.5529L98.785 15.6216C98.7393 15.6902 98.6964 15.7617 98.6506 15.8304C98.6277 15.8733 98.6049 15.9133 98.5791 15.9562C98.5391 16.0334 98.499 16.1049 98.4647 16.185C98.4418 16.2308 98.4247 16.2737 98.4046 16.3223C98.3846 16.3709 98.3331 16.4939 98.3045 16.5854C98.2874 16.6312 98.2731 16.6798 98.2559 16.7284L98.2187 16.8543C98.1158 17.2204 98.0643 17.5979 98.0586 17.9812V18.1242C98.0614 18.5274 98.1215 18.9307 98.2359 19.3168C98.2616 19.4055 98.2902 19.497 98.3217 19.58C98.356 19.6686 98.3903 19.7573 98.4275 19.8431C98.4647 19.9289 98.499 20.0033 98.5419 20.0805C98.582 20.1577 98.5991 20.1892 98.6306 20.2435C98.6621 20.2979 98.6992 20.3579 98.7336 20.4151C98.7679 20.4723 98.7879 20.5009 98.8165 20.5438C98.8451 20.5867 98.888 20.6496 98.9252 20.6983C99.2226 21.1244 99.5916 21.4877 100.012 21.7679L102.609 22.8548L102.884 22.9635L103.544 23.2266L104.099 23.4468L105.778 24.1075H105.798L105.915 24.1533H105.935L106.033 24.1876C106.487 24.3992 106.779 24.8826 106.779 25.4174C106.79 25.7807 106.662 26.1296 106.422 26.387C106.399 26.4128 106.376 26.4356 106.35 26.4585C106.276 26.5272 106.196 26.5844 106.107 26.6301C106.05 26.6616 105.99 26.6873 105.927 26.7073C105.895 26.7216 105.861 26.7302 105.827 26.7388C105.735 26.7617 105.641 26.776 105.546 26.776H104.334C104.165 26.776 103.999 26.7474 103.836 26.6959C103.436 26.5672 103.092 26.2898 102.866 25.9094C102.686 25.6062 102.592 25.2544 102.592 24.8969V24.1104H98.0357V25.4947C98.0328 26.6358 98.4533 27.7284 99.1998 28.535L99.3256 28.6665L99.4543 28.7895L99.5887 28.9068L99.726 29.0155L99.8719 29.1213L99.8948 29.1356L99.9205 29.1527L99.9834 29.1928C100.041 29.23 100.101 29.2671 100.161 29.3015H100.181L100.533 29.5017L100.71 29.5932C100.83 29.6533 100.95 29.7105 101.073 29.7648C101.193 29.8191 101.316 29.8735 101.448 29.9221L101.637 29.9965C101.943 30.1109 102.251 30.2053 102.566 30.2853C102.655 30.3082 102.746 30.3311 102.835 30.3483C103.456 30.4855 104.088 30.5542 104.723 30.5513C105.403 30.5513 106.081 30.4741 106.745 30.3197C107.108 30.2339 107.465 30.128 107.817 29.9993C107.963 29.945 108.109 29.8878 108.249 29.8277C108.389 29.7677 108.532 29.7019 108.67 29.6332L108.878 29.5274C109.084 29.4187 109.284 29.3015 109.482 29.1813H109.493L109.619 29.1041L109.745 29.0212L109.828 28.964C111.647 27.6254 112.116 24.9512 110.878 22.9864C110.411 22.2456 109.739 21.6793 108.961 21.3704L106.793 20.5181L105.406 19.9947L104.002 19.4541L103.827 19.3883L103.71 19.3426C103.684 19.3369 103.659 19.3283 103.636 19.3197L103.556 19.2854C102.984 19.0051 102.726 18.2758 102.987 17.658C103.069 17.4578 103.201 17.2862 103.367 17.1603C103.416 17.1231 103.467 17.0917 103.519 17.0631C103.573 17.0345 103.627 17.0087 103.684 16.9887C103.793 16.9544 103.905 16.9344 104.019 16.9344H105.664C105.778 16.9344 105.892 16.9544 106.001 16.9887C106.058 17.0087 106.115 17.0316 106.167 17.0631C106.221 17.0888 106.27 17.1231 106.319 17.1603C106.622 17.3891 106.802 17.7667 106.802 18.1671V19.3969L111.638 19.3798Z" fill="#1E3E2B"/>
<path d="M128.03 19.3798V18.3101C128.032 16.8428 127.32 15.4786 126.159 14.7207L126.099 14.6835L125.856 14.549L125.816 14.5262L125.624 14.4203C125.427 14.3174 125.232 14.2201 125.029 14.1286C124.898 14.0685 124.761 14.0113 124.623 13.957C124.489 13.9027 124.349 13.8483 124.209 13.8026L123.965 13.7225L123.711 13.6453L123.468 13.5823C123.376 13.5566 123.285 13.5337 123.19 13.5108L122.93 13.4565C122.312 13.3335 121.683 13.2734 121.054 13.2734H120.791C120.702 13.2734 120.613 13.2734 120.525 13.2734L120.304 13.2849L119.996 13.3163C119.907 13.3163 119.821 13.3278 119.732 13.3478H119.667L119.281 13.4107C119.258 13.4136 119.238 13.4164 119.215 13.425L119.006 13.4679L118.917 13.4851C118.769 13.5194 118.623 13.5566 118.48 13.5938L118.282 13.651C118.071 13.711 117.865 13.7854 117.662 13.8598C117.527 13.9084 117.399 13.9627 117.273 14.0142L116.892 14.1858L116.795 14.2316L116.649 14.3002L116.598 14.3288L116.549 14.3546L116.42 14.4289L116.383 14.4518L116.269 14.5262L116.186 14.5834C116.109 14.6406 116.029 14.7006 115.943 14.7636L115.846 14.8465C115.783 14.9037 115.723 14.9638 115.663 15.0238C115.602 15.0839 115.582 15.1039 115.542 15.1468C115.502 15.1897 115.454 15.2469 115.414 15.2984C115.374 15.3499 115.334 15.3985 115.294 15.45L115.274 15.4757C115.274 15.4814 115.274 15.4843 115.274 15.49C115.259 15.5072 115.245 15.5243 115.234 15.5444L115.188 15.613C115.142 15.6816 115.096 15.7531 115.053 15.8218L114.982 15.9476C114.942 16.0249 114.905 16.0964 114.867 16.1764L114.81 16.3137C114.773 16.3967 114.739 16.4853 114.707 16.5769C114.693 16.6226 114.676 16.6712 114.661 16.7199L114.624 16.8457C114.521 17.2118 114.47 17.5893 114.464 17.9726V18.1156C114.47 18.5189 114.53 18.9221 114.641 19.3083C114.667 19.3969 114.696 19.4884 114.73 19.5714C114.762 19.6601 114.799 19.7487 114.833 19.8345C114.867 19.9203 114.905 19.9947 114.948 20.0719L115.036 20.2349C115.07 20.295 115.108 20.3493 115.139 20.4065C115.173 20.4609 115.193 20.4923 115.222 20.5352C115.251 20.5781 115.294 20.6411 115.334 20.6897C115.64 21.093 116.009 21.4333 116.426 21.6936L119.023 22.7804L119.298 22.8891L119.961 23.1522L120.519 23.3725L122.195 24.0331H122.215L122.332 24.0789H122.352L122.45 24.1132C122.904 24.3249 123.199 24.8082 123.199 25.3431C123.222 25.7349 123.082 26.1182 122.819 26.387L122.747 26.4585C122.673 26.5272 122.593 26.5844 122.504 26.6301C122.447 26.6616 122.387 26.6873 122.324 26.7073C122.292 26.7216 122.261 26.7302 122.226 26.7388C122.135 26.7617 122.041 26.776 121.946 26.776H120.733C120.565 26.776 120.399 26.7474 120.236 26.6959C119.498 26.4614 118.995 25.7263 118.995 24.8969V24.1104H114.43V25.4947C114.427 26.6358 114.847 27.7284 115.594 28.535L115.72 28.6665L115.846 28.7895L115.98 28.9068L116.117 29.0154L116.263 29.1213L116.286 29.1356L116.312 29.1527H116.323L116.383 29.1928C116.443 29.23 116.501 29.2671 116.561 29.3015H116.581L116.932 29.5017L117.113 29.5932C117.233 29.6533 117.356 29.7105 117.476 29.7648C117.599 29.8191 117.719 29.8735 117.851 29.9221L118.042 29.9965C118.345 30.1109 118.657 30.2053 118.972 30.2853C119.06 30.3082 119.152 30.3311 119.241 30.3483C119.861 30.4855 120.493 30.5513 121.128 30.5513C121.806 30.5513 122.484 30.4741 123.147 30.3197C123.511 30.2339 123.868 30.128 124.22 29.9993C124.366 29.945 124.509 29.8878 124.652 29.8277C124.795 29.7677 124.932 29.7019 125.072 29.6332L125.281 29.5274C125.484 29.4187 125.687 29.3015 125.882 29.1813H125.893L126.019 29.1041C126.062 29.0784 126.105 29.0498 126.145 29.0212L126.228 28.964C128.047 27.6254 128.513 24.9455 127.275 22.9806C126.808 22.2427 126.142 21.6793 125.364 21.3704L123.142 20.5181L121.755 19.9947L120.35 19.4541L120.176 19.3883L120.059 19.3426C120.033 19.3369 120.007 19.3283 119.984 19.3197L119.904 19.2854C119.332 19.0051 119.075 18.2758 119.335 17.658C119.418 17.4578 119.549 17.2862 119.715 17.1603C119.764 17.1231 119.815 17.0917 119.867 17.0631C119.921 17.0345 119.976 17.0116 120.033 16.9887C120.141 16.9544 120.256 16.9344 120.37 16.9344H122.012C122.126 16.9344 122.241 16.9544 122.352 16.9887C122.41 17.0087 122.467 17.0316 122.518 17.0631C122.573 17.0917 122.624 17.1231 122.67 17.1603C122.973 17.3891 123.156 17.7638 123.153 18.1671V19.3969L128.03 19.3798Z" fill="#1E3E2B"/>
<path d="M136.415 9.15479H130.735V12.7471H136.415V9.15479Z" fill="#1E3E2B"/>
</g>
<defs>
<clipPath id="clip0_714_493">
<rect width="149" height="35.0277" fill="white" transform="translate(0 0.986328)"/>
</clipPath>
</defs>
</svg>
