<svg width="44" height="44" viewBox="0 0 44 44" fill="none" xmlns="http://www.w3.org/2000/svg">
<path d="M30.4451 17.6806C30.4451 18.8003 30.8899 19.8741 31.6816 20.6658C32.4733 21.4575 33.5471 21.9023 34.6667 21.9023C35.7864 21.9023 36.8602 21.4575 37.6519 20.6658C38.4436 19.8741 38.8884 18.8003 38.8884 17.6806C38.8884 16.561 38.4436 15.4872 37.6519 14.6955C36.8602 13.9038 35.7864 13.459 34.6667 13.459C33.5471 13.459 32.4733 13.9038 31.6816 14.6955C30.8899 15.4872 30.4451 16.561 30.4451 17.6806Z" stroke="#0BA94B" stroke-width="1.375" stroke-linecap="round" stroke-linejoin="round"/>
<path d="M41.9805 30.3472C41.7285 28.5871 40.8501 26.9769 39.5067 25.8121C38.1632 24.6473 36.4448 24.0061 34.6667 24.0061C32.8887 24.0061 31.1702 24.6473 29.8268 25.8121C28.4833 26.9769 27.605 28.5871 27.353 30.3472H41.9805Z" stroke="#0BA94B" stroke-width="1.375" stroke-linecap="round" stroke-linejoin="round"/>
<path d="M2.01953 16.5547L10.3669 23.3036C10.4993 23.4139 10.6662 23.4742 10.8385 23.4742C11.0107 23.4742 11.1776 23.4139 11.31 23.3036L19.6574 16.5547" stroke="#0BA94B" stroke-width="1.375" stroke-linecap="round" stroke-linejoin="round"/>
<path d="M18.0501 15.6631H18.8511C19.0746 15.6759 19.284 15.7764 19.4339 15.9426C19.5839 16.1088 19.6623 16.3275 19.6521 16.5511V27.2482C19.6623 27.4718 19.5839 27.6905 19.4339 27.8567C19.284 28.0229 19.0746 28.1234 18.8511 28.1362H2.81875C2.59526 28.1234 2.38583 28.0229 2.23589 27.8567C2.08595 27.6905 2.00757 27.4718 2.01776 27.2482V16.5547C2.00757 16.331 2.08595 16.1124 2.23589 15.9462C2.38583 15.7799 2.59526 15.6795 2.81875 15.6666H18.0501V15.6631Z" stroke="#0BA94B" stroke-width="1.375" stroke-linecap="round" stroke-linejoin="round"/>
<path d="M31.413 9.09696C30.5041 7.39141 29.1797 5.94269 27.5623 4.88487C25.9449 3.82705 24.0868 3.19432 22.16 3.04523C20.2331 2.89614 18.2998 3.23551 16.5389 4.03193C14.7781 4.82836 13.2465 6.0561 12.0861 7.60153" stroke="#0BA94B" stroke-width="1.375" stroke-linecap="round" stroke-linejoin="round"/>
<path d="M26.6213 8.47925L31.413 9.09731" stroke="#0BA94B" stroke-width="1.375" stroke-linecap="round" stroke-linejoin="round"/>
<path d="M32.0879 5.04077L31.413 9.09725" stroke="#0BA94B" stroke-width="1.375" stroke-linecap="round" stroke-linejoin="round"/>
<path d="M11.8091 34.9031C12.7178 36.6083 14.042 38.0567 15.6591 39.1143C17.2762 40.1718 19.1339 40.8045 21.0604 40.9536C22.9868 41.1026 24.9198 40.7634 26.6803 39.9672C28.4409 39.171 29.9721 37.9436 31.1324 36.3985" stroke="#0BA94B" stroke-width="1.375" stroke-linecap="round" stroke-linejoin="round"/>
<path d="M16.599 35.5211L11.8073 34.9031" stroke="#0BA94B" stroke-width="1.375" stroke-linecap="round" stroke-linejoin="round"/>
<path d="M11.1306 38.9596L11.8073 34.9031" stroke="#0BA94B" stroke-width="1.375" stroke-linecap="round" stroke-linejoin="round"/>
</svg>
