<svg width="45" height="45" viewBox="0 0 45 45" fill="none" xmlns="http://www.w3.org/2000/svg">
<path d="M4.48082 2.80151H40.8506C40.8506 2.80151 42.6462 2.80151 42.6462 4.59709V27.6466C42.6462 27.6466 42.6462 29.4421 40.8506 29.4421H4.48082C4.48082 29.4421 2.68524 29.4421 2.68524 27.6466V4.59709C2.68524 4.59709 2.68524 2.80151 4.48082 2.80151Z" stroke="#0BA94B" stroke-width="1.11818" stroke-linecap="round" stroke-linejoin="round"/>
<path d="M13.3415 8.12964H8.01337" stroke="#0BA94B" stroke-width="1.11818" stroke-linecap="round" stroke-linejoin="round"/>
<path d="M10.6774 8.12964V2.80151" stroke="#0BA94B" stroke-width="1.11818" stroke-linecap="round" stroke-linejoin="round"/>
<path d="M25.3298 8.12964H20.0016" stroke="#0BA94B" stroke-width="1.11818" stroke-linecap="round" stroke-linejoin="round"/>
<path d="M22.6656 8.12964V2.80151" stroke="#0BA94B" stroke-width="1.11818" stroke-linecap="round" stroke-linejoin="round"/>
<path d="M37.318 8.12964H31.9899" stroke="#0BA94B" stroke-width="1.11818" stroke-linecap="round" stroke-linejoin="round"/>
<path d="M34.654 8.12964V2.80151" stroke="#0BA94B" stroke-width="1.11818" stroke-linecap="round" stroke-linejoin="round"/>
<path d="M9.34534 29.4419V42.7622" stroke="#0BA94B" stroke-width="1.11818" stroke-linecap="round" stroke-linejoin="round"/>
<path d="M14.6735 29.4419V42.7622" stroke="#0BA94B" stroke-width="1.11818" stroke-linecap="round" stroke-linejoin="round"/>
<path d="M30.6579 29.4419V42.7622" stroke="#0BA94B" stroke-width="1.11818" stroke-linecap="round" stroke-linejoin="round"/>
<path d="M35.986 29.4419V42.7622" stroke="#0BA94B" stroke-width="1.11818" stroke-linecap="round" stroke-linejoin="round"/>
<path d="M21.3337 17.4534H37.3181" stroke="#0BA94B" stroke-width="1.11818" stroke-linecap="round" stroke-linejoin="round"/>
<path d="M21.3337 22.7815H31.9899" stroke="#0BA94B" stroke-width="1.11818" stroke-linecap="round" stroke-linejoin="round"/>
</svg>
