<svg width="44" height="44" viewBox="0 0 44 44" fill="none" xmlns="http://www.w3.org/2000/svg">
<path d="M24.2396 24.6389H40.7124C40.7124 24.6389 41.9805 24.6389 41.9805 25.907V36.0429C41.9805 36.0429 41.9805 37.311 40.7124 37.311H24.2396C24.2396 37.311 22.9715 37.311 22.9715 36.0429V25.907C22.9715 25.907 22.9715 24.6389 24.2396 24.6389Z" stroke="#0BA94B" stroke-width="1.4375" stroke-linecap="round" stroke-linejoin="round"/>
<path d="M32.4431 37.645V41.9803" stroke="#0BA94B" stroke-width="1.4375" stroke-linecap="round" stroke-linejoin="round"/>
<path d="M28.1078 41.9805H36.7784" stroke="#0BA94B" stroke-width="1.4375" stroke-linecap="round" stroke-linejoin="round"/>
<path d="M9.0349 14.7661V17.4426C9.0349 19.0036 9.65501 20.5007 10.7588 21.6045C11.8626 22.7083 13.3597 23.3284 14.9207 23.3284C16.4817 23.3284 17.9788 22.7083 19.0826 21.6045C20.1864 20.5007 20.8065 19.0036 20.8065 17.4426V14.7661" stroke="#0BA94B" stroke-width="1.4375" stroke-linecap="round" stroke-linejoin="round"/>
<path d="M17.8547 27.5057C16.5233 27.0389 15.0995 26.8977 13.7023 27.094C12.3052 27.2902 10.9753 27.8182 9.82401 28.6337C8.67272 29.4492 7.73345 30.5286 7.08479 31.7815C6.43612 33.0344 6.09692 34.4244 6.09555 35.8353" stroke="#0BA94B" stroke-width="1.4375" stroke-linecap="round" stroke-linejoin="round"/>
<path d="M20.8101 9.31396V14.7664L14.7662 16.7147L9.03845 14.7664V9.43296" stroke="#0BA94B" stroke-width="1.4375" stroke-linecap="round" stroke-linejoin="round"/>
<path d="M27.5146 6.79886L14.7662 2.01953L2.01953 6.79886L14.7662 11.58L27.5146 6.79886Z" stroke="#0BA94B" stroke-width="1.4375" stroke-linecap="round" stroke-linejoin="round"/>
<path d="M2.01953 6.79883V13.173" stroke="#0BA94B" stroke-width="1.4375" stroke-linecap="round" stroke-linejoin="round"/>
</svg>
