<svg width="19" height="15" viewBox="0 0 19 15" fill="none" xmlns="http://www.w3.org/2000/svg">
<path d="M6.09245 14.8337C13.011 14.8337 16.7957 9.18955 16.7957 4.30355C16.7957 4.14561 16.7957 3.98542 16.7888 3.82748C17.5256 3.30231 18.1616 2.65212 18.6668 1.90737C17.9785 2.20616 17.2492 2.40309 16.5024 2.49175C17.289 2.0288 17.8782 1.3004 18.1604 0.441913C17.4213 0.873005 16.6124 1.17563 15.769 1.33653C15.202 0.742027 14.4518 0.348184 13.6344 0.216011C12.8171 0.0838371 11.9783 0.220708 11.2479 0.605424C10.5176 0.990139 9.9365 1.60123 9.59464 2.34403C9.25277 3.08684 9.16922 3.91991 9.35693 4.7142C7.86133 4.64036 6.39818 4.25783 5.0624 3.5914C3.72662 2.92498 2.54803 1.98955 1.60308 0.845789C1.12337 1.66153 0.976966 2.62645 1.19361 3.54461C1.41026 4.46277 1.9737 5.26533 2.76954 5.78932C2.17318 5.76937 1.58993 5.61171 1.06683 5.32904V5.3798C1.06786 6.23435 1.36854 7.06234 1.91804 7.72382C2.46754 8.38529 3.23217 8.83968 4.08266 9.01018C3.75984 9.09773 3.42636 9.14139 3.09152 9.13991C2.85546 9.14062 2.61987 9.11908 2.38798 9.07561C2.62836 9.81122 3.09641 10.4544 3.72659 10.915C4.35677 11.3757 5.1175 11.6307 5.90225 11.6444C4.56913 12.6753 2.92239 13.2344 1.22725 13.2317C0.928551 13.2329 0.630064 13.216 0.333496 13.1809C2.05398 14.2609 4.05207 14.8343 6.09245 14.8337V14.8337Z" fill="#D0EA51"/>
</svg>
